<svg width="16.46" xmlns="http://www.w3.org/2000/svg" height="12.98" fill="none"><g class="fills"><rect rx="0" ry="0" width="16.46" height="12.98" transform="matrix(1.000000, 0.000000, 0.000000, 1.000000, 0.000000, 0.000000)" class="frame-background"/></g><g class="frame-children"><path d="M5.505,10.075C5.505,10.125,5.429,10.166,5.333,10.166C5.223,10.174,5.147,10.133,5.147,10.075C5.147,10.024,5.223,9.983,5.320,9.983C5.419,9.976,5.505,10.016,5.505,10.075ZZM4.473,9.961C4.450,10.011,4.517,10.070,4.616,10.085C4.702,10.110,4.802,10.085,4.822,10.034C4.842,9.983,4.779,9.925,4.679,9.902C4.593,9.885,4.497,9.910,4.473,9.961ZZM5.940,9.918C5.844,9.935,5.778,9.983,5.788,10.042C5.798,10.092,5.884,10.125,5.983,10.108C6.080,10.090,6.146,10.042,6.136,9.991C6.126,9.943,6.036,9.910,5.940,9.918ZZM8.124,0.203C3.521,0.203,0.000,2.872,0.000,6.389C0.000,9.200,2.316,11.606,5.625,12.453C6.050,12.511,6.199,12.311,6.199,12.146C6.199,11.989,6.189,11.122,6.189,10.589C6.189,10.589,3.866,10.970,3.378,9.834C3.378,9.834,3.000,9.096,2.456,8.906C2.456,8.906,1.696,8.508,2.509,8.516C2.509,8.516,3.335,8.566,3.790,9.170C4.517,10.148,5.734,9.867,6.209,9.700C6.285,9.294,6.501,9.012,6.740,8.845C4.885,8.688,3.013,8.483,3.013,6.044C3.013,5.347,3.265,4.997,3.796,4.551C3.710,4.386,3.428,3.706,3.883,2.829C4.576,2.664,6.173,3.514,6.173,3.514C6.836,3.372,7.550,3.298,8.257,3.298C8.963,3.298,9.677,3.372,10.341,3.514C10.341,3.514,11.937,2.662,12.630,2.829C13.085,3.709,12.803,4.386,12.717,4.551C13.248,4.999,13.573,5.349,13.573,6.044C13.573,8.490,11.618,8.685,9.763,8.845C10.068,9.045,10.327,9.426,10.327,10.021C10.327,10.876,10.317,11.933,10.317,12.141C10.317,12.306,10.470,12.506,10.891,12.448C14.210,11.606,16.460,9.200,16.460,6.389C16.460,2.872,12.727,0.203,8.124,0.203ZZM3.226,8.947C3.182,8.972,3.192,9.030,3.249,9.078C3.302,9.119,3.378,9.137,3.421,9.104C3.465,9.078,3.455,9.020,3.398,8.972C3.345,8.931,3.269,8.914,3.226,8.947ZZM2.867,8.741C2.844,8.774,2.877,8.815,2.944,8.840C2.997,8.865,3.063,8.858,3.086,8.822C3.109,8.789,3.076,8.749,3.010,8.723C2.944,8.708,2.890,8.716,2.867,8.741ZZM3.942,9.644C3.889,9.677,3.909,9.753,3.986,9.801C4.062,9.859,4.158,9.867,4.201,9.826C4.244,9.793,4.225,9.717,4.158,9.669C4.085,9.611,3.986,9.603,3.942,9.644ZZM3.564,9.271C3.511,9.296,3.511,9.362,3.564,9.421C3.617,9.479,3.707,9.504,3.750,9.479C3.803,9.446,3.803,9.380,3.750,9.322C3.703,9.263,3.617,9.238,3.564,9.271ZZ" class="fills" style="fill: rgb(0, 0, 0);"/></g></svg>