<svg width="16.46" xmlns="http://www.w3.org/2000/svg" height="12.98" fill="none"><g class="fills"><rect rx="0" ry="0" width="16.46" height="12.98" transform="matrix(1.000000, 0.000000, 0.000000, 1.000000, 0.000000, 0.000000)" class="frame-background"/></g><g class="frame-children"><path d="M9.929,5.793C9.976,6.038,10.010,6.284,10.010,6.603C10.010,9.385,8.117,11.358,5.267,11.358C2.539,11.358,0.329,9.179,0.329,6.490C0.329,3.801,2.539,1.623,5.267,1.623C6.601,1.623,7.713,2.101,8.575,2.897L7.234,4.166C6.871,3.821,6.231,3.415,5.267,3.415C3.583,3.415,2.209,4.790,2.209,6.490C2.209,8.190,3.583,9.565,5.267,9.565C7.221,9.565,7.955,8.177,8.070,7.466L5.267,7.466L5.267,5.793L9.929,5.793ZZM14.697,5.956L14.697,4.543L13.257,4.543L13.257,5.956L11.824,5.956L11.824,7.376L13.257,7.376L13.257,8.789L14.697,8.789L14.697,7.376L16.131,7.376L16.131,5.956L14.697,5.956ZZ" class="fills" style="fill: rgb(0, 0, 0);"/></g></svg>