<svg width="16.46" xmlns="http://www.w3.org/2000/svg" height="12.98" fill="none"><g class="fills"><rect rx="0" ry="0" width="16.46" height="12.98" transform="matrix(1.000000, 0.000000, 0.000000, 1.000000, 0.000000, 0.000000)" class="frame-background"/></g><g class="frame-children"><path d="M3.684,11.358L0.272,11.358L0.272,3.775L3.684,3.775ZM1.976,2.741C0.885,2.741,0.000,2.117,0.000,1.364C0.000,0.611,0.885,0.000,1.976,0.000C3.068,0.000,3.953,0.611,3.953,1.364C3.953,2.117,3.067,2.741,1.976,2.741ZZM16.456,11.358L13.051,11.358L13.051,7.666C13.051,6.787,13.025,5.658,11.277,5.658C9.503,5.658,9.231,6.614,9.231,7.603L9.231,11.358L5.822,11.358L5.822,3.775L9.095,3.775L9.095,4.809L9.143,4.809C9.598,4.213,10.711,3.585,12.371,3.585C15.825,3.585,16.460,5.154,16.460,7.192L16.456,11.358ZZ" class="fills" style="fill: rgb(0, 0, 0);"/></g></svg>